<svg enable-background="new 0 0 511.999 511.999" viewBox="0 0 511.999 511.999" xmlns="http://www.w3.org/2000/svg"><path d="m435.024 443.177c-2.074 0-4.146-.791-5.729-2.372l-73.317-73.318c-3.163-3.165-3.163-8.293 0-11.456 3.166-3.164 8.294-3.161 11.456 0l73.317 73.318c3.163 3.165 3.163 8.293 0 11.457-1.581 1.58-3.654 2.371-5.727 2.371z" fill="#365558"/><path d="m375.159 64.376c-41.513-41.513-96.708-64.376-155.417-64.376s-113.904 22.863-155.418 64.376c-85.697 85.698-85.697 225.138 0 310.836 41.514 41.512 96.708 64.375 155.418 64.375s113.904-22.863 155.418-64.375c41.514-41.515 64.376-96.709 64.376-155.419s-22.863-113.903-64.377-155.417z" fill="#4db2b3"/><path d="m509.576 461.512-61.097-61.097c-3.165-3.162-8.293-3.162-11.457 0l-36.659 36.659c-3.164 3.165-3.164 8.293 0 11.456l61.097 61.097c1.582 1.581 3.656 2.372 5.729 2.372s4.146-.791 5.729-2.372l36.659-36.659c3.161-3.163 3.161-8.292-.001-11.456z" fill="#9baaab"/><path d="m418.175 419.26-17.814 17.814c-3.163 3.165-3.163 8.293 0 11.456l61.097 61.097c1.582 1.581 3.656 2.372 5.729 2.372s4.146-.791 5.729-2.372l17.814-17.814z" fill="#9baaab"/><path d="m63.814 64.899c-85.18 85.74-85.014 224.788.51 310.313 41.514 41.512 96.708 64.375 155.418 64.375 58.465 0 113.441-22.679 154.895-63.866z" fill="#4db2b3"/><path d="m331.217 108.319c-61.467-61.466-161.481-61.466-222.949 0-29.776 29.775-46.175 69.365-46.175 111.475s16.399 81.7 46.174 111.475c30.733 30.733 71.104 46.101 111.474 46.101 40.371 0 80.741-15.367 111.475-46.101 61.467-61.468 61.467-161.482.001-222.95z" fill="#e6eaea"/><path d="m107.757 108.842c-29.449 29.716-45.664 69.087-45.664 110.952 0 42.11 16.399 81.7 46.174 111.475 30.733 30.733 71.104 46.101 111.474 46.101 40.144 0 80.283-15.201 110.952-45.591z" fill="#e6eaea"/><path d="m399.033 227.894c-4.475 0-8.1-3.626-8.1-8.101 0-22.935-4.417-45.143-13.13-66.003-1.724-4.128.225-8.873 4.353-10.598 4.131-1.725 8.873.225 10.597 4.353 9.542 22.849 14.381 47.157 14.381 72.248-.001 4.476-3.626 8.101-8.101 8.101z" fill="#4db2b3"/><path d="m366.072 124.211c-2.533 0-5.026-1.184-6.607-3.403-5.556-7.805-11.838-15.228-18.674-22.064-32.333-32.334-75.323-50.141-121.05-50.141-4.474 0-8.101-3.626-8.101-8.101s3.627-8.101 8.101-8.101c50.055 0 97.112 19.492 132.507 54.885 7.471 7.472 14.34 15.589 20.417 24.124 2.593 3.645 1.742 8.703-1.902 11.298-1.424 1.015-3.066 1.503-4.691 1.503z" fill="#4db2b3"/><path d="m158.225 155.53h-38.882c-4.474 0-8.101 3.626-8.101 8.101v108.007c0 4.475 3.627 8.101 8.101 8.101h38.882c4.474 0 8.101-3.626 8.101-8.101v-108.008c0-4.474-3.627-8.1-8.101-8.1z" fill="#9baaab"/><path d="m235.99 168.491h-38.882c-4.474 0-8.101 3.626-8.101 8.101v95.046c0 4.475 3.627 8.101 8.101 8.101h38.882c4.474 0 8.101-3.626 8.101-8.101v-95.046c0-4.476-3.627-8.101-8.101-8.101z" fill="#f0353d"/><path d="m313.755 129.608h-38.882c-4.475 0-8.101 3.626-8.101 8.101v133.928c0 4.475 3.626 8.101 8.101 8.101h38.882c4.475 0 8.1-3.626 8.1-8.101v-133.928c.001-4.475-3.625-8.101-8.1-8.101z" fill="#ff8c29"/><path d="m331.036 279.738h-228.974c-4.474 0-8.101-3.626-8.101-8.101s3.627-8.1 8.101-8.1h228.975c4.475 0 8.1 3.626 8.1 8.1s-3.626 8.101-8.101 8.101z" fill="#365558"/></svg>