<svg enable-background="new 0 0 342.7 342.7" viewBox="0 0 342.7 342.7" xmlns="http://www.w3.org/2000/svg"><g fill="#333"><path d="m291.2 90.5v8.9h-11.7c14.8 21.3 23.5 47.1 23.5 75-.1 72.6-59 131.6-131.7 131.6-40.8 0-77.3-18.6-101.4-47.8v21.6c26.3 25.3 62.1 40.9 101.4 40.9 80.8 0 146.3-65.5 146.3-146.3 0-31.2-9.8-60.2-26.4-83.9z" stroke="#333" stroke-miterlimit="10"/><path d="m42.3 238.4h14c-10.6-18.9-16.6-40.8-16.6-64 0-72.7 58.9-131.6 131.6-131.6 35.9 0 68.5 14.4 92.2 37.8v-19.7c-25.2-20.5-57.3-32.8-92.2-32.8-80.8 0-146.3 65.5-146.3 146.3 0 24.9 6.3 48.4 17.3 69z" stroke="#333" stroke-miterlimit="10"/><path d="m126.7 228.6-6.5 6.5c-.9.9-1.9 1.3-3 1.3s-2.1-.4-3-1.3l-60.8-60.7c-.9-.9-1.3-1.9-1.3-3s.4-2.1 1.3-3l60.7-60.8c.9-.9 1.9-1.3 3-1.3s2.1.4 3 1.3l6.5 6.5c.9.9 1.3 1.9 1.3 3s-.4 2.1-1.3 3l-51.2 51.3 51.3 51.2c.9.9 1.3 1.9 1.3 3s-.5 2.2-1.3 3zm76.9-139.2-48.5 168.4c-.3 1.1-1 2-2 2.5s-2 .7-3.1.3l-8.1-2.2c-1.1-.3-2-1-2.5-2-.6-1-.7-2.1-.3-3.2l48.5-168.4c.3-1.1 1-2 2-2.5 1-.6 2-.7 3.1-.3l8.1 2.2c1.1.3 2 1 2.5 2s.7 2.1.3 3.2zm85.8 84.8-60.7 60.8c-.9.9-1.9 1.3-3 1.3s-2.1-.4-3-1.3l-6.5-6.5c-.9-.9-1.3-1.9-1.3-3s.4-2.1 1.3-3l51.2-51.3-51.4-51.2c-.9-.9-1.3-1.9-1.3-3s.4-2.1 1.3-3l6.5-6.5c.9-.9 1.9-1.3 3-1.3s2.1.4 3 1.3l60.8 60.7c.9.9 1.3 1.9 1.3 3 .1 1.2-.4 2.2-1.2 3z"/></g></svg>