<svg enable-background="new 0 0 342.7 342.7" viewBox="0 0 342.7 342.7" xmlns="http://www.w3.org/2000/svg"><g fill="#333" stroke="#333" stroke-miterlimit="10"><g stroke-width="4"><path d="m235.3 69-13.8 15.6 17.8 4.8z"/><path d="m241.4 106-30-8.1-14 51.3h32.3z"/><path d="m117.5 123.3c-1.6 0-3.3-.1-5.2-.2l5.4 26.2h15.5l-5.7-27.7c-3.1 1.4-6.9 1.7-10 1.7z"/><path d="m155.3 61h30.7v88.2h-30.7z"/><path d="m101.6 157.1v99.9c0 13.6 11.1 24.7 24.7 24.7h92.6c13.6 0 24.7-11 24.7-24.7v-99.9z"/><path d="m115.7 119.4h1.8c4.2 0 7.2-.6 9.1-1.9 7.5-4.9-.4-19.7-19.4-49.8 0 0-21.1 49.2 5.1 51.5 1.2.1 2.3.1 3.4.2z"/></g><path d="m291.2 90.5v8.9h-11.7c14.8 21.3 23.5 47.1 23.5 75-.1 72.6-59 131.6-131.7 131.6-40.8 0-77.3-18.6-101.4-47.8v21.6c26.3 25.3 62.1 40.9 101.4 40.9 80.8 0 146.3-65.5 146.3-146.3 0-31.2-9.8-60.2-26.4-83.9z"/><path d="m42.3 238.4h14c-10.6-18.9-16.6-40.8-16.6-64 0-72.7 58.9-131.6 131.6-131.6 35.9 0 68.5 14.4 92.2 37.8v-19.7c-25.2-20.5-57.3-32.8-92.2-32.8-80.8 0-146.3 65.5-146.3 146.3 0 24.9 6.3 48.4 17.3 69z"/></g></svg>