<svg enable-background="new 0 0 486.392 486.392" viewBox="0 0 486.392 486.392" xmlns="http://www.w3.org/2000/svg"><path d="m455.992 60.799h-425.593c-16.78 0-30.399 13.619-30.399 30.399v303.995c0 16.781 13.619 30.399 30.399 30.399h425.593c16.781 0 30.399-13.619 30.399-30.399v-303.995c.001-16.78-13.618-30.399-30.399-30.399zm-425.593 116.886 116.673 79.312-116.673 116.704zm21.493 217.508 120.777-120.777 70.588 47.97 70.192-48.335 121.051 121.112zm404.1-21.492-117.16-117.16 117.16-80.589zm0-233.316-.638-.912-212.158 146.13-212.797-144.641v-49.764h425.593z" fill="#010002"/></svg>