<svg enable-background="new 0 0 1000 1000" fill="#dedede" viewBox="0 0 1000 1000" xmlns="http://www.w3.org/2000/svg"><path d="m977.7 482.3c-146.2-181.1-304.3-273.5-470-273.5-280.7 0-477.2 263.2-485.4 274l-12.3 16.4 12.8 15.9c150.3 183.2 309.9 276 475.6 276 281.2 0 472-266.3 479.7-277.6l11.8-16.4zm-473.1 221.1c-111.9 0-203.2-91.3-203.2-203.2s91.3-203.2 203.2-203.2 203.2 91.3 203.2 203.2c0 112.4-90.8 203.2-203.2 203.2zm-426.4-204.7c34.9-42.1 138.5-155 279.6-207.8-66.2 46.2-109.3 123.1-109.3 209.9 0 89.8 46.7 169.3 117 215-97.9-34.9-193.9-107.3-287.3-217.1zm579.3 207.3c62.6-46.7 103.6-121.6 103.6-205.7 0-88.3-44.6-166.2-112.9-212.4 94.4 34.9 186.3 105.7 275 211.4-33.3 41.5-130.2 151.3-265.7 206.7zm-209.3-205.7c0 31.2 25.3 56.4 56.4 56.4 31.2 0 56.4-25.3 56.4-56.4s-25.3-56.4-56.4-56.4c-31.2-.1-56.4 25.2-56.4 56.4z"/></svg>