<svg enable-background="new 0 0 512 512" viewBox="0 0 512 512" xmlns="http://www.w3.org/2000/svg"><g fill="#efefef"><path d="m233.6 247.6c0 29.9 6.2 40.6 19.8 40.6 11.4 0 18.5-8.1 22.1-15.9v-77.3c-4.9-2-8.8-2.9-14.3-2.9-16.8-.1-27.6 13.6-27.6 55.5z"/><path d="m257.4-.6c-141.4 0-256 114.6-256 256s114.6 256 256 256 256-114.6 256-256-114.6-256-256-256zm79.3 322.3c-26 0-40-17.2-43.5-33.1-7.8 18.2-23.1 31.8-46.5 31.8-41.3 0-59.5-31.2-59.5-73.1 0-53.3 27.6-87.7 75.7-87.7 17.9 0 38.7 4.9 56.2 14.6v80.3c0 27 4.2 35.4 15.3 35.4 15.6 0 27-16.2 27-68.9 0-56.5-31.2-91.3-98.8-91.3-69.9 0-108.9 47.1-108.9 114.7 0 69.2 37.7 112.8 109.2 112.8 22.4 0 47.1-4.9 64-11l12 35.4c-20.5 7.8-49.1 13.7-76.4 13.7-94.2 0-155.3-58.8-155.3-150.8 0-88.4 65-152.1 155.7-152.1 92.3 0 144.6 61.4 144.6 128 0 58.7-27.9 101.3-70.8 101.3z"/></g></svg>