<svg height="188" viewBox="0 0 646 188" width="646" xmlns="http://www.w3.org/2000/svg"><g fill="#fff"><path d="m4.78 0h14.22l18.3 84.1 18.42-84.1h14.08l1.92 103.68h-11.65l-1.15-75.26-17.54 75.26h-8.19l-17.41-75.26-1.15 75.26h-11.77z"/><path d="m92.14 102.27c-2.284046-1.648567-4.1113142-3.8509237-5.31-6.4-1.2673013-2.5902019-1.9241149-5.4363943-1.92-8.32 0-5.8 1.2366667-10.5133333 3.71-14.14 2.4006989-3.5645177 5.6161519-6.5057316 9.38-8.58 5.214054-2.7465157 10.575518-5.2035751 16.06-7.36v-5.25c0-4.8666667-.49-8.3-1.47-10.3s-2.98-3-6-3c-5.206667 0-7.81 3.5-7.81 10.5v3.71l-13.57-.51.13-2.69c.4266667-7.4266667 2.4966667-12.8233333 6.21-16.19s9.026667-5.0533333 15.94-5.06c7.08 0 12.22 1.94 15.42 5.82s4.8 9.7466667 4.8 17.6v33.79c.028417 5.9519494.456043 11.8952901 1.28 17.79h-12.47c-.94-4.8666667-1.536667-8.4933333-1.79-10.88-.971833 3.2456901-2.807198 6.1663745-5.31 8.45-2.65345 2.355692-6.11433 3.595304-9.66 3.46-2.7359051.024646-5.4072829-.830756-7.62-2.44zm18.24-11.46c1.449429-1.1189178 2.703126-2.4706125 3.71-4v-21c-3.753333 2.22-6.57 3.9466667-8.45 5.18-1.960059 1.3215435-3.636221 3.0215048-4.93 5-1.434282 2.1822026-2.1702413 4.7493403-2.11 7.36 0 3.0733333.5533333 5.44 1.66 7.1 1.059207 1.639342 2.910392 2.5915974 4.86 2.5 1.950962-.0613259 3.816063-.8165854 5.26-2.13z"/><path d="m141.35 29.7h13.65v10.5c2.56-4.18 5.183333-7.1233333 7.87-8.83 2.529215-1.6587638 5.485387-2.5480472 8.51-2.56.72864-.0012263 1.45667.0421884 2.18.13v15.06c-2.404397-.9604525-4.961519-1.4820375-7.55-1.54-2.110828-.0428439-4.190781.5118101-6 1.6-2.082348 1.4521307-3.797699 3.3694881-5.01 5.6v54h-13.7z"/><path d="m188.46 101.18c-3.220771-2.4438893-5.501939-5.9221409-6.46-9.85-1.270265-5.2557312-1.851806-10.6543135-1.73-16.06v-17c-.129396-5.5215533.452042-11.0368148 1.73-16.41.923715-3.9263716 3.213426-7.3963829 6.46-9.79 3.153333-2.26 7.633333-3.39 13.44-3.39 5.286667 0 9.403333.8533333 12.35 2.56 2.925073 1.6857063 5.114885 4.403356 6.14 7.62 1.27873 4.2586401 1.862884 8.6955081 1.73 13.14v4.35h-12.42v-4.51c0-4.8666667-.533333-8.26-1.6-10.18s-3.1-2.88-6.1-2.88c-2.306667 0-4.013333.5133333-5.12 1.54-1.280939 1.3782883-2.086948 3.1304837-2.3 5-.479281 3.3441392-.673314 6.7229791-.58 10.1v23.3c-.083996 3.281218.174063 6.5622599.77 9.79.263626 1.8204234 1.146522 3.4943932 2.5 4.74 1.44892.9817681 3.183456 1.4532241 4.93 1.34 3.153333 0 5.2-1.0466667 6.14-3.14s1.41-5.3133333 1.41-9.66v-6h12.42v5.11c0 8-1.473333 13.9733333-4.42 17.92-2.946667 3.946667-8.23 5.906667-15.85 5.88-5.806667 0-10.286667-1.173333-13.44-3.52z"/><path d="m237.8 97.73c-3.286667-4.6666667-4.93-11.43-4.93-20.29v-21.5c0-8.8733333 1.643333-15.6366667 4.93-20.29s8.853333-6.9866667 16.7-7c7.766667 0 13.293333 2.3333333 16.58 7s4.926667 11.43 4.92 20.29v21.5c0 8.8733333-1.643333 15.6366667-4.93 20.29-3.286667 4.653333-8.813333 6.986667-16.58 7-7.84-.02-13.403333-2.353333-16.69-7zm22.08-5.31c1.140612-1.579638 1.831779-3.4388783 2-5.38.290684-2.8905096.417553-5.7951536.38-8.7v-23.17c.036407-2.9281235-.090457-5.8559998-.38-8.77-.162025-1.9609251-.853266-3.8411002-2-5.44-1.113333-1.4466667-2.906667-2.1733333-5.38-2.18s-4.286667.7333333-5.44 2.22c-1.176877 1.5726357-1.890424 3.4430978-2.06 5.4-.289543 2.9140002-.416407 5.8418765-.38 8.77v23.17c-.036047 2.891512.090821 5.7827589.38 8.66.183093 1.9561481.914448 3.8209317 2.11 5.38 1.153333 1.4533333 2.966667 2.18 5.44 2.18s4.25-.7133333 5.33-2.14z"/><path d="m319 0h25.73c8.96 0 15.466667 2.43333333 19.52 7.3 4.053333 4.8666667 6.08 11.9933333 6.08 21.38 0 8.4466667-2.176667 15.0166667-6.53 19.71s-10.666667 7.0266667-18.94 7h-11.38v48.26h-14.48zm21.12 45.06c3.364987.1389521 6.727004-.3389151 9.92-1.41 2.274653-.8688142 4.100209-2.6222141 5.06-4.86 1.026667-2.3066667 1.54-5.64 1.54-10 0-5.2933333-.383333-9.1766667-1.15-11.65-.65148-2.3411956-2.317303-4.2675329-4.54-5.25-2.26-1.0266667-5.823333-1.54-10.69-1.54h-6.78v34.71z"/><path d="m382.18 97.73c-3.286667-4.6666667-4.93-11.43-4.93-20.29v-21.5c0-8.8733333 1.643333-15.6366667 4.93-20.29s8.853333-6.9866667 16.7-7c7.766667 0 13.293333 2.3333333 16.58 7s4.93 11.43 4.93 20.29v21.5c0 8.8733333-1.643333 15.6366667-4.93 20.29-3.286667 4.653333-8.813333 6.986667-16.58 7-7.846667-.02-13.413333-2.353333-16.7-7zm22.08-5.31c1.140612-1.579638 1.831779-3.4388783 2-5.38.291348-2.8904618.418219-5.7951434.38-8.7v-23.17c.03699-2.9281325-.089875-5.8560412-.38-8.77-.162025-1.9609251-.853266-3.8411002-2-5.44-1.106667-1.4466667-2.9-2.1733333-5.38-2.18s-4.29.7333333-5.43 2.22c-1.201723 1.5783759-1.933139 3.4641133-2.11 5.44-.289543 2.9140002-.416407 5.8418765-.38 8.77v23.13c-.037553 2.9048464.089316 5.8094904.38 8.7.183093 1.9561481.914448 3.8209317 2.11 5.38 1.153333 1.4533333 2.966667 2.18 5.44 2.18s4.263333-.7266667 5.37-2.18z"/><path d="m434.21 0h13.7v103.68h-13.7z"/><path d="m469.41 101.44c-3.278722-2.3446726-5.634618-5.7617822-6.66-9.66-1.28-4.2666667-1.92-9.8133333-1.92-16.64v-16.9c0-10.24 1.6-17.7266667 4.8-22.46s8.896667-7.1 17.09-7.1c6 0 10.5 1.2366667 13.5 3.71 3.14234 2.6812188 5.261895 6.3657119 6 10.43 1.110447 5.97019 1.603046 12.038875 1.47 18.11v6h-29.16v9.87c0 4.44.106667 7.7733333.32 10 .121584 2.0094575.815559 3.9421789 2 5.57 1.153333 1.4933333 3.053333 2.24 5.7 2.24 2.986667 0 5.013333-1 6.08-3s1.6-5.05 1.6-9.15v-4.46h13.31v2.82c0 7.7666667-1.666667 13.6966667-5 17.79-3.333333 4.093333-8.623333 6.14-15.87 6.14-5.68-.033333-10.1-1.136667-13.26-3.31zm20.86-41.92v-6.66c0-5.0333333-.49-8.64-1.47-10.82s-3.05-3.2666667-6.21-3.26c-1.818897-.1285062-3.621087.4199866-5.06 1.54-1.328636 1.3776117-2.162247 3.1573895-2.37 5.06-.498053 3.3694216-.712139 6.7747313-.64 10.18v4z"/><path d="m523.68 100.29c-2.453333-2.9466667-3.733333-7.3766667-3.84-13.29v-48.22h-7.84v-9.08h7.81v-21.64h13.7v21.64h11.9v9.09h-11.9v47.35c0 2.9866667.47 5.0766667 1.41 6.27s2.733333 1.79 5.38 1.79c1.674041.0043132 3.345839-.1227435 5-.38v10.11c-3.133289.490439-6.298638.747811-9.47.77-5.626667 0-9.676667-1.47-12.15-4.41z"/><path d="m563.11 100.29c-2.473333-2.9466667-3.753333-7.3633333-3.84-13.25v-48.26h-7.81v-9.08h7.81v-21.64h13.73v21.64h11.9v9.09h-11.9v47.35c0 2.9866667.47 5.0766667 1.41 6.27s2.733333 1.79 5.38 1.79c1.674041.0043132 3.345839-.1227435 5-.38v10.11c-3.133289.490439-6.298638.747811-9.47.77-5.666667 0-9.736667-1.47-12.21-4.41z"/><path d="m598.5 97.73c-3.286667-4.6666667-4.93-11.43-4.93-20.29v-21.5c0-8.8733333 1.643333-15.6366667 4.93-20.29s8.853333-6.9866667 16.7-7c7.766667 0 13.293333 2.3333333 16.58 7s4.93 11.43 4.93 20.29v21.5c0 8.8733333-1.643333 15.6366667-4.93 20.29-3.286667 4.653333-8.813333 6.986667-16.58 7-7.853333-.02-13.42-2.353333-16.7-7zm22.08-5.31c1.140612-1.579638 1.831779-3.4388783 2-5.38.291348-2.8904618.418219-5.7951434.38-8.7v-23.17c.03699-2.9281325-.089875-5.8560412-.38-8.77-.162025-1.9609251-.853266-3.8411002-2-5.44-1.106667-1.4466667-2.9-2.1733333-5.38-2.18s-4.293333.7333333-5.44 2.22c-1.201723 1.5783759-1.933139 3.4641133-2.11 5.44-.289543 2.9140002-.416407 5.8418765-.38 8.77v23.13c-.037553 2.9048464.089316 5.8094904.38 8.7.183093 1.9561481.914448 3.8209317 2.11 5.38 1.153333 1.4533333 2.966667 2.18 5.44 2.18s4.266667-.7266667 5.38-2.18z"/><path d="m23.53 156.84h-17.9v18.84h-5.63v-42.68h26.43v4.6h-20.8v14.62h17.9z"/><path d="m46.88 148.84c-.8827055-.143348-1.7757378-.213587-2.67-.21-3.5533333 0-5.9666667 1.513333-7.24 4.54v22.5h-5.42v-31.67h5.27l.09 3.66c1.5437587-2.702085 4.4491868-4.335428 7.56-4.25.8205053-.042995 1.6403013.097054 2.4.41z"/><path d="m49.83 159.54c-.046798-2.89732.5796449-5.765949 1.83-8.38 1.1157512-2.36191 2.8857909-4.354072 5.1-5.74 2.2473704-1.359019 4.834196-2.052538 7.46-2 3.9833133-.141971 7.822257 1.500672 10.47 4.48 2.6666667 2.986667 4 6.96 4 11.92v.38c.0490387 2.868503-.5562876 5.710459-1.77 8.31-1.1001451 2.360219-2.8613057 4.350644-5.07 5.73-2.276493 1.390586-4.9028925 2.10183-7.57 2.05-3.9740154.138578-7.8023995-1.504254-10.44-4.48-2.6666667-2.986667-4-6.943333-4-11.87zm5.45.64c-.1496849 3.017428.7125874 5.998427 2.45 8.47 1.5700629 2.027916 3.9903285 3.214956 6.555 3.214956s4.9849371-1.18704 6.555-3.214956c1.62-2.16 2.43-5.183333 2.43-9.07.1379966-3.014321-.7348586-5.988364-2.48-8.45-1.5252612-2.098495-3.9867146-3.310517-6.58-3.24-2.5346319-.079732-4.9490705 1.08084-6.47 3.11-1.64 2.153333-2.46 5.213333-2.46 9.18z"/><path d="m90.62 144 .18 4c2.244177-2.961027 5.775757-4.661693 9.49-4.57 6.666667 0 10.046667 3.78 10.14 11.34v20.95h-5.43v-21c.131328-1.827125-.429078-3.636846-1.57-5.07-1.294141-1.198206-3.032477-1.797006-4.79-1.65-1.6559002-.036493-3.2806245.453725-4.64 1.4-1.3354672.943475-2.4063227 2.21404-3.11 3.69v22.59h-5.4v-31.68z"/><path d="m125.95 136.31v7.69h5.92v4.19h-5.92v19.68c-.07574 1.016046.203478 2.026887.79 2.86.701936.725301 1.694958 1.093086 2.7 1 .869472-.0309 1.73372-.148143 2.58-.35v4.37c-1.354724.377373-2.753718.572425-4.16.58-2.067563.146959-4.08801-.66417-5.48-2.2-1.336874-1.794932-1.992536-4.006461-1.85-6.24v-19.72h-5.77v-4.17h5.77v-7.68z"/><path d="m151.35 176.27c-3.945422.136745-7.761695-1.416685-10.49-4.27-2.666667-2.82-4-6.593333-4-11.32v-1c-.052235-2.907429.563576-5.788056 1.8-8.42 1.097937-2.358707 2.828806-4.366515 5-5.8 2.077777-1.368289 4.51216-2.095127 7-2.09 4.12 0 7.323333 1.356667 9.61 4.07s3.43 6.6 3.43 11.66v2.26h-21.46c-.062662 2.801371.921433 5.52546 2.76 7.64 1.687741 1.900667 4.129071 2.958455 6.67 2.89 1.695703.053805 3.374569-.350366 4.86-1.17 1.352625-.802424 2.537636-1.858409 3.49-3.11l3.31 2.58c-2.673333 4.053333-6.666667 6.08-11.98 6.08zm-.67-28.42c-2.096332-.039976-4.106772.832066-5.51 2.39-1.60566 1.880275-2.5691 4.224061-2.75 6.69h15.88v-.41c-.00244-2.323412-.788078-4.578158-2.23-6.4-1.365986-1.531708-3.349904-2.365688-5.4-2.27z"/><path d="m175.11 144 .18 4c2.244177-2.961027 5.775757-4.661693 9.49-4.57 6.666667 0 10.046667 3.78 10.14 11.34v20.95h-5.42v-21c.131328-1.827125-.429078-3.636846-1.57-5.07-1.295805-1.194583-3.033944-1.789687-4.79-1.64-1.653607-.031441-3.274604.462211-4.63 1.41-1.335467.943475-2.406323 2.21404-3.11 3.69v22.59h-5.4v-31.7z"/><path d="m201.77 159.57c0-4.86 1.153333-8.77 3.46-11.73 2.140771-2.691842 5.352645-4.311622 8.789829-4.432798 3.437183-.121177 6.75515 1.268396 9.080171 3.802798v-16.53h5.42v45h-5l-.26-3.4c-2.212894 2.691411-5.570075 4.175247-9.05 4-3.55886.067027-6.92344-1.619001-9-4.51-2.313333-3.006667-3.47-6.933333-3.47-11.78zm5.42.62c0 3.593333.743333 6.406667 2.23 8.44 1.413466 1.972481 3.725435 3.100271 6.15 3 3.218631.133984 6.196978-1.697324 7.53-4.63v-14.52c-1.387519-2.836815-4.314021-4.591933-7.47-4.48-2.459312-.09726-4.799181 1.063254-6.21 3.08-1.486667 2.046667-2.23 5.08-2.23 9.1z"/><path d="m261.83 162.23.82 5.63 1.2-5.07 8.43-29.79h4.72l8.23 29.77 1.17 5.16.91-5.74 6.69-29.19h5.65l-10.34 42.66h-5.13l-8.79-31.08-.67-3.25-.72 3.27-9.11 31.08h-5.13l-10.3-42.68h5.63z"/><path d="m317.26 176.27c-3.945422.136745-7.761695-1.416685-10.49-4.27-2.666667-2.82-4-6.593333-4-11.32v-1c-.052235-2.907429.563576-5.788056 1.8-8.42 1.097937-2.358707 2.828806-4.366515 5-5.8 2.077777-1.368289 4.51216-2.095127 7-2.09 4.12 0 7.323333 1.356667 9.61 4.07s3.43 6.6 3.43 11.66v2.26h-21.47c-.049814 2.774616.925818 5.470067 2.74 7.57 1.687741 1.900667 4.129071 2.958455 6.67 2.89 1.695703.053805 3.374569-.350366 4.86-1.17 1.352625-.802424 2.537636-1.858409 3.49-3.11l3.31 2.58c-2.66 4.1-6.643333 6.15-11.95 6.15zm-.67-28.42c-2.096332-.039976-4.106772.832066-5.51 2.39-1.60566 1.880275-2.5691 4.224061-2.75 6.69h15.87v-.41c-.001659-2.323544-.787383-4.578539-2.23-6.4-1.363739-1.52892-3.343344-2.362632-5.39-2.27z"/><path d="m362.72 160.18c0 4.846667-1.113333 8.736667-3.34 11.67-2.08 2.875159-5.453312 4.528082-9 4.41-3.604963.185773-7.073401-1.400972-9.29-4.25l-.26 3.66h-5v-45h5.42v16.79c2.198627-2.717558 5.558008-4.228351 9.05-4.07 3.561119-.138382 6.958958 1.498724 9.07 4.37 2.2 2.913333 3.3 6.913333 3.3 12zm-5.42-.62c0-3.693333-.713333-6.543333-2.14-8.55-1.398578-1.990024-3.720775-3.122803-6.15-3-3.366374-.122808-6.449009 1.876307-7.71 5v13.71c1.309274 3.106441 4.390165 5.091551 7.76 5 2.401072.106658 4.688973-1.025966 6.06-3 1.453333-2.06 2.18-5.11 2.18-9.15z"/><path d="m385.25 175.68v-42.68h12c3.440224-.068081 6.836546.781 9.84 2.46 2.844962 1.631023 5.144567 4.066308 6.61 7 1.602749 3.240287 2.411683 6.815364 2.36 10.43v2.72c.081889 3.662377-.717196 7.290839-2.33 10.58-1.463008 2.948481-3.780371 5.38781-6.65 7-3.086671 1.672897-6.54937 2.529966-10.06 2.49zm5.63-38.06v33.46h5.92c4.333333 0 7.706667-1.333333 10.12-4s3.62-6.506667 3.62-11.52v-2.56c0-4.846667-1.136667-8.613333-3.41-11.3s-5.5-4.05-9.68-4.09z"/><path d="m436.9 176.27c-3.941982.133865-7.754045-1.419332-10.48-4.27-2.666667-2.82-4-6.593333-4-11.32v-1c-.052235-2.907429.563576-5.788056 1.8-8.42 1.097937-2.358707 2.828806-4.366515 5-5.8 2.077777-1.368289 4.51216-2.095127 7-2.09 4.12 0 7.323333 1.356667 9.61 4.07s3.43 6.6 3.43 11.66v2.26h-21.47c-.049814 2.774616.925818 5.470067 2.74 7.57 1.687741 1.900667 4.129071 2.958455 6.67 2.89 1.695703.053805 3.374569-.350366 4.86-1.17 1.352625-.802424 2.537636-1.858409 3.49-3.11l3.31 2.58c-2.66 4.1-6.646667 6.15-11.96 6.15zm-.67-28.42c-2.096332-.039976-4.106772.832066-5.51 2.39-1.60566 1.880275-2.5691 4.224061-2.75 6.69h15.88v-.41c-.001659-2.323544-.787383-4.578539-2.23-6.4-1.363739-1.52892-3.343344-2.362632-5.39-2.27z"/><path d="m465.61 168.33 7.86-24.33h5.53l-11.37 31.7h-4.13l-11.5-31.7h5.54z"/><path d="m497 176.27c-3.948861.139628-7.769346-1.414036-10.5-4.27-2.666667-2.82-4-6.593333-4-11.32v-1c-.052235-2.907429.563576-5.788056 1.8-8.42 1.097937-2.358707 2.828806-4.366515 5-5.8 2.077777-1.368289 4.51216-2.095127 7-2.09 4.12 0 7.323333 1.356667 9.61 4.07s3.43 6.6 3.43 11.66v2.26h-21.46c-.049814 2.774616.925818 5.470067 2.74 7.57 1.687741 1.900667 4.129071 2.958455 6.67 2.89 1.695703.053805 3.374569-.350366 4.86-1.17 1.352625-.802424 2.537636-1.858409 3.49-3.11l3.31 2.58c-2.633333 4.1-6.616667 6.15-11.95 6.15zm-.67-28.42c-2.096332-.039976-4.106772.832066-5.51 2.39-1.60566 1.880275-2.5691 4.224061-2.75 6.69h15.88v-.41c-.001659-2.323544-.787383-4.578539-2.23-6.4-1.365986-1.531708-3.349904-2.365688-5.4-2.27z"/><path d="m521.51 175.68h-5.42v-45h5.42z"/><path d="m528.75 159.54c-.046798-2.89732.579645-5.765949 1.83-8.38 1.116224-2.361598 2.886156-4.35364 5.1-5.74 2.24737-1.359019 4.834196-2.052538 7.46-2 3.983313-.141971 7.822257 1.500672 10.47 4.48 2.666667 2.986667 4 6.96 4 11.92v.38c.049039 2.868503-.556288 5.710459-1.77 8.31-1.100145 2.360219-2.861306 4.350644-5.07 5.73-2.276493 1.390586-4.902893 2.10183-7.57 2.05-3.974015.138578-7.802399-1.504254-10.44-4.48-2.666667-2.986667-4-6.943333-4-11.87zm5.45.64c-.149685 3.017428.712587 5.998427 2.45 8.47 1.570063 2.027916 3.990328 3.214956 6.555 3.214956s4.984937-1.18704 6.555-3.214956c1.62-2.16 2.43-5.183333 2.43-9.07.137997-3.014321-.734859-5.988364-2.48-8.45-1.525261-2.098495-3.986715-3.310517-6.58-3.24-2.549109-.061164-4.966392 1.130665-6.47 3.19-1.64 2.1-2.46 5.133333-2.46 9.1z"/><path d="m591.18 160.18c0 4.826667-1.103333 8.713333-3.31 11.66-2.070664 2.887361-5.449157 4.546577-9 4.42-3.417745.175361-6.739246-1.163482-9.08-3.66v15.26h-5.39v-43.86h5l.26 3.52c2.241486-2.750214 5.656223-4.271999 9.2-4.1 3.523304-.116766 6.882226 1.491784 9 4.31 2.22 2.873333 3.33 6.873333 3.33 12zm-5.42-.62c0-3.573333-.763333-6.396667-2.29-8.47-1.431837-2.027653-3.78928-3.196976-6.27-3.11-3.098975-.096501-5.974661 1.60631-7.38 4.37v15.15c1.423093 2.772206 4.326402 4.465803 7.44 4.34 2.454098.074971 4.782336-1.085393 6.2-3.09 1.533333-2.06 2.3-5.12 2.3-9.18z"/><path d="m611.22 176.27c-3.945422.136745-7.761695-1.416685-10.49-4.27-2.666667-2.82-4-6.593333-4-11.32v-1c-.052235-2.907429.563576-5.788056 1.8-8.42 1.097937-2.358707 2.828806-4.366515 5-5.8 2.077777-1.368289 4.51216-2.095127 7-2.09 4.12 0 7.323333 1.356667 9.61 4.07s3.43 6.6 3.43 11.66v2.26h-21.46c-.049814 2.774616.925818 5.470067 2.74 7.57 1.687741 1.900667 4.129071 2.958455 6.67 2.89 1.695703.053805 3.374569-.350366 4.86-1.17 1.352625-.802424 2.537636-1.858409 3.49-3.11l3.31 2.58c-2.66 4.1-6.646667 6.15-11.96 6.15zm-.67-28.42c-2.096332-.039976-4.106772.832066-5.51 2.39-1.60566 1.880275-2.5691 4.224061-2.75 6.69h15.88v-.41c-.001659-2.323544-.787383-4.578539-2.23-6.4-1.363739-1.52892-3.343344-2.362632-5.39-2.27z"/><path d="m645.18 148.84c-.8827-.143394-1.775736-.213632-2.67-.21-3.553333 0-5.966667 1.513333-7.24 4.54v22.5h-5.42v-31.67h5.27l.09 3.66c1.543759-2.702085 4.449187-4.335428 7.56-4.25.820505-.042995 1.640301.097054 2.4.41z"/></g></svg>