<svg viewBox="0 0 198.67 198.67" xmlns="http://www.w3.org/2000/svg"><path d="m99.33 1a98.33 98.33 0 1 0 98.33 98.33 98.33 98.33 0 0 0 -98.33-98.33zm0 191.15a92.82 92.82 0 1 1 92.82-92.82 92.82 92.82 0 0 1 -92.82 92.82z" fill="#fff" stroke="#ed1c24" stroke-miterlimit="10" stroke-width="2"/><path d="m193.44 99.33a94.52 94.52 0 0 1 -2.44 21.29 94 94 0 0 1 -91.68 72.82 94 94 0 0 1 -75.08-37.44 93.65 93.65 0 0 1 -16.59-35.38 94.88 94.88 0 0 1 -.83-38.62 93.85 93.85 0 0 1 15.18-36.32 94.08 94.08 0 0 1 171.44 53.65z" fill="#0a118a"/><g fill="#ed1c24" stroke="#fff" stroke-miterlimit="10" stroke-width="6"><path d="m183.17 142.14a93.57 93.57 0 0 1 -7.5 12.23l-56.4-33.75-21.64-13-19.63 13-53.76 35.38a92.36 92.36 0 0 1 -7.77-12l35.42-23.35 32.11-21.17-29.19-17.48-40.06-24a92.27 92.27 0 0 1 7.25-12.32l58.49 35 16.75 10 21.53-14.19 54.23-35.71a93.34 93.34 0 0 1 8.06 11.89l-44.54 29.33-25.59 16.9 36.29 21.72z"/><path d="m193.44 99.33a94.52 94.52 0 0 1 -2.44 21.29h-72.21v70.8a94.7 94.7 0 0 1 -38.28.13v-70.93h-72.86a94.88 94.88 0 0 1 -.83-38.62h73.69v-74.88a94.7 94.7 0 0 1 38.28.13v74.75h73.06a94 94 0 0 1 1.59 17.33z"/></g></svg>