<svg enable-background="new 0 0 476.737 476.737" height="512" viewBox="0 0 476.737 476.737" width="512" xmlns="http://www.w3.org/2000/svg"><path d="m238.369 0c-131.643 0-238.369 106.726-238.369 238.369 0 131.675 106.726 238.369 238.369 238.369 131.675 0 238.369-106.694 238.369-238.369-.001-131.643-106.695-238.369-238.369-238.369zm50.852 330.252c6.198 6.198 6.198 16.273 0 22.47s-16.273 6.198-22.47 0l-103.071-103.071c-3.115-3.115-4.64-7.183-4.64-11.283s1.526-8.168 4.64-11.283l103.07-103.07c6.198-6.198 16.273-6.198 22.47 0 6.198 6.198 6.198 16.273 0 22.47l-91.883 91.883z" fill="#4db2b3"/></svg>