<svg enable-background="new 0 0 508.52 508.52" viewBox="0 0 508.52 508.52" xmlns="http://www.w3.org/2000/svg"><g fill="#010002"><path d="m277.588 39.442h-133.041c-59.624 0-115.752 45.195-115.752 97.54 0 53.49 40.65 96.682 101.354 96.682l12.332-.381c-3.941 7.532-6.77 16.018-6.77 24.854 0 14.874 8.009 26.92 18.116 36.741l-23.074.254c-73.894-.032-130.753 47.07-130.753 95.824 0 48.087 62.357 78.121 136.22 78.121 84.224 0 130.753-47.801 130.753-95.856 0-38.52-11.378-61.626-46.53-86.48-12.014-8.518-35.024-29.208-35.024-41.381 0-14.27 4.068-21.294 25.553-38.075 21.993-17.194 37.567-41.381 37.567-69.477 0-33.467-14.906-66.108-42.906-76.85h42.175zm-46.434 325.516c1.049 4.45 1.621 8.994 1.621 13.73 0 38.87-25.013 69.19-96.809 69.19-51.074 0-87.942-32.323-87.942-71.161 0-38.044 45.735-69.699 96.809-69.19 11.918.159 23.042 2.034 33.117 5.308 27.714 19.228 47.61 30.13 53.204 52.123zm-81.776-144.864c-34.293-1.017-66.87-38.361-72.782-83.365-5.912-45.036 17.067-79.488 51.329-78.471s66.87 37.154 72.782 82.158c5.943 45.035-17.068 80.695-51.329 79.678z"/><path d="m413.172 133.741v-94.299h-31.782v94.299h-95.348v31.782h95.348v96.396h31.782v-96.396h95.348v-31.782z"/></g></svg>