<svg viewBox="0 0 397 69.55" xmlns="http://www.w3.org/2000/svg"><path d="m6.12 54.36a14.32 14.32 0 0 1 -6.12-5.54l6.34-6a9.94 9.94 0 0 0 9.36 5.61 8.52 8.52 0 0 0 6.08-2.12 12.32 12.32 0 0 0 3.22-6.71l5.31-26.6h-18l1.59-7.82h27.1l-6.73 33.92q-1.87 9.28-6.41 13.24t-12.31 4a21.13 21.13 0 0 1 -9.43-1.98z"/><path d="m88.49 17.14-7.63 38.44h-8.57l.79-4a18.2 18.2 0 0 1 -12.53 4.47 18.16 18.16 0 0 1 -8.6-2 14.89 14.89 0 0 1 -6.09-5.87 17.76 17.76 0 0 1 -2.23-9 23.47 23.47 0 0 1 2.85-11.56 20.63 20.63 0 0 1 7.77-8 21.51 21.51 0 0 1 11-2.88q9.23 0 13.11 6.12l1.08-5.68zm-18.83 29.41a13.09 13.09 0 0 0 4.72-5.11 15.78 15.78 0 0 0 1.72-7.44 9.39 9.39 0 0 0 -2.66-7.09c-1.78-1.7-4.27-2.55-7.49-2.55a12.75 12.75 0 0 0 -6.8 1.83 13 13 0 0 0 -4.72 5.11 15.79 15.79 0 0 0 -1.73 7.46 9.35 9.35 0 0 0 2.67 7.09q2.66 2.55 7.49 2.55a12.75 12.75 0 0 0 6.8-1.85z"/><path d="m136.37 17.14-24.12 38.44h-9.25l-8.9-38.44h8.9l6.41 28.58 17.89-28.58z"/><path d="m178.41 17.14-7.63 38.44h-8.57l.8-4a19.62 19.62 0 0 1 -21.14 2.45 14.93 14.93 0 0 1 -6.08-5.87 17.66 17.66 0 0 1 -2.23-9 23.57 23.57 0 0 1 2.84-11.56 20.72 20.72 0 0 1 7.78-8 21.51 21.51 0 0 1 11-2.88q9.21 0 13.1 6.12l1.08-5.68zm-18.82 29.41a13 13 0 0 0 4.71-5.11 15.79 15.79 0 0 0 1.7-7.44 9.39 9.39 0 0 0 -2.66-7.09q-2.67-2.55-7.49-2.55a12.79 12.79 0 0 0 -6.81 1.83 13 13 0 0 0 -4.71 5.11 15.79 15.79 0 0 0 -1.73 7.46 9.38 9.38 0 0 0 2.66 7.09q2.67 2.55 7.49 2.55a12.79 12.79 0 0 0 6.84-1.85z"/><path d="m187.92 54.65a23.36 23.36 0 0 1 -8.35-4.25l4-7.34a24.59 24.59 0 0 0 7.52 4 27.36 27.36 0 0 0 8.89 1.48 17.49 17.49 0 0 0 8.82-1.91 5.81 5.81 0 0 0 3.2-5.23 4.16 4.16 0 0 0 -1.33-3.13 10.27 10.27 0 0 0 -3.32-2.05q-2-.8-5.5-1.8a66.14 66.14 0 0 1 -7.85-2.78 13.69 13.69 0 0 1 -5.19-4 10.63 10.63 0 0 1 -2.16-6.91 13.87 13.87 0 0 1 2.77-8.57 17.79 17.79 0 0 1 7.74-5.69 30.38 30.38 0 0 1 11.45-2 37.77 37.77 0 0 1 9.29 1.12 25.81 25.81 0 0 1 7.56 3.13l-3.67 7.42a22.37 22.37 0 0 0 -6.34-2.88 26.66 26.66 0 0 0 -7.34-1q-5.62 0-8.89 2a6.19 6.19 0 0 0 -3.28 5.44 4.31 4.31 0 0 0 1.34 3.3 10 10 0 0 0 3.31 2c1.3.5 3.19 1.14 5.69 1.91a67.82 67.82 0 0 1 7.77 2.66 13.71 13.71 0 0 1 5.15 3.82 9.79 9.79 0 0 1 2.13 6.61 13.94 13.94 0 0 1 -2.78 8.64 17.73 17.73 0 0 1 -7.84 5.69 31.47 31.47 0 0 1 -11.63 2 37.49 37.49 0 0 1 -11.16-1.68z"/><path d="m236.27 54a15.42 15.42 0 0 1 -6.59-6 16.73 16.73 0 0 1 -2.31-8.85 22.61 22.61 0 0 1 3-11.52 21.09 21.09 0 0 1 8.17-8 24 24 0 0 1 11.91-2.92 21 21 0 0 1 10 2.27 15.46 15.46 0 0 1 6.55 6.72l-7.7 4q-2.67-5.32-9.58-5.32a12.75 12.75 0 0 0 -6.8 1.83 13.09 13.09 0 0 0 -4.72 5.11 15.78 15.78 0 0 0 -1.72 7.46 9.34 9.34 0 0 0 2.66 7.09q2.67 2.55 7.56 2.55a13.17 13.17 0 0 0 6-1.33 12.28 12.28 0 0 0 4.53-4l6.63 4.46a18 18 0 0 1 -7.35 6.3 23.16 23.16 0 0 1 -10.22 2.27 22.11 22.11 0 0 1 -10.02-2.12z"/><path d="m290.19 17.93a27.23 27.23 0 0 1 8.68-1.23l-1.66 8.57a13.23 13.23 0 0 0 -2.23-.21q-11 0-13.32 11.59l-3.81 18.93h-9l7.63-38.44h8.57l-1 5a13.72 13.72 0 0 1 6.14-4.21z"/><path d="m306.36 17.14h9l-7.63 38.44h-9zm2.64-7.82a4.78 4.78 0 0 1 -1.51-3.56 5.49 5.49 0 0 1 1.69-4.1 6.05 6.05 0 0 1 4.45-1.66 5.53 5.53 0 0 1 3.89 1.4 4.5 4.5 0 0 1 1.48 3.42 5.79 5.79 0 0 1 -1.69 4.32 6.05 6.05 0 0 1 -4.43 1.66 5.33 5.33 0 0 1 -3.88-1.48z"/><path d="m356.07 18.72a15 15 0 0 1 6.09 5.83 17.62 17.62 0 0 1 2.23 9 23.47 23.47 0 0 1 -2.85 11.56 20.84 20.84 0 0 1 -7.77 8.06 21.13 21.13 0 0 1 -11 2.92 18.47 18.47 0 0 1 -7.92-1.59 12 12 0 0 1 -5.26-4.6l-3.89 19.65h-9l10.44-52.41h8.57l-.79 4a19.61 19.61 0 0 1 21.13-2.45zm-7.2 27.83a13 13 0 0 0 4.72-5.11 15.79 15.79 0 0 0 1.73-7.44 9.36 9.36 0 0 0 -2.67-7.09q-2.65-2.55-7.49-2.55a12.75 12.75 0 0 0 -6.8 1.83 13.09 13.09 0 0 0 -4.72 5.11 15.78 15.78 0 0 0 -1.72 7.46 9.34 9.34 0 0 0 2.66 7.09c1.78 1.7 4.27 2.55 7.49 2.55a12.75 12.75 0 0 0 6.8-1.85z"/><path d="m381.6 42.7a14.51 14.51 0 0 0 -.15 1.65q0 4.32 4.54 4.32a8.77 8.77 0 0 0 5-1.51l1.58 6.62a17.15 17.15 0 0 1 -9.29 2.31 11.44 11.44 0 0 1 -8-2.74 9.68 9.68 0 0 1 -3-7.56 14.81 14.81 0 0 1 .29-3l3.67-18.15h-6.24l1.44-7.2h6.27l1.73-8.78h9l-1.8 8.78h10.36l-1.44 7.2h-10.36z"/></svg>