<svg height="80" viewBox="0 0 97 80" width="97" xmlns="http://www.w3.org/2000/svg"><g fill="#fff" fill-rule="evenodd"><path d="m13.8 9.1c-1.2.3-2.8 1.4-3.5 2.4l-8.6 11.9c-.7 1-1.3 2.9-1.3 4.1v28.7c0 1.2 1 2 2.2 1.7l6.9-1.9c1.2-.3 2.2-1.6 2.2-2.9v-28.8c0-1.2 1-2.5 2.2-2.9l6.6-1.8c1.2-.3 2.2.4 2.2 1.7v28.7c0 1.2 1 2 2.2 1.7l6.9-1.9c1.2-.3 2.2-1.6 2.2-2.9v-28.8c0-1.2 1-2.5 2.2-2.9l6.6-1.8c1.2-.3 2.2.4 2.2 1.7v28.7c0 1.2 1 2 2.2 1.7l6.9-1.9c1.2-.3 2.2-1.6 2.2-2.9v-28.8c0-1.2-.8-2.9-1.8-3.7l-7.8-6.3c-1-.8-2.7-1.2-3.9-.8z" transform="translate(0 10)"/><path d="m2.5 5.1c-1.2.3-2.2 1.6-2.2 2.9v70.5c0 1.2.6 1.4 1.3.4l8.6-11.9c.7-1 1.3-2.9 1.3-4.1v-12.4c0-1.2 1-2.5 2.2-2.9l6.6-1.8c1.2-.3 2.8-1.4 3.5-2.4l8.6-11.9c.7-1 1.3-2.9 1.3-4.1v-16.4c0-1.2-.8-2.9-1.8-3.7l-7.8-6.3c-1-.8-2.7-1.2-3.9-.8zm11.3 30.1c-1.2.3-2.2-.4-2.2-1.7v-16.3c0-1.2 1-2.5 2.2-2.9l6.6-1.8c1.2-.3 2.2.4 2.2 1.7v16.4c0 1.2-1 2.5-2.2 2.9z" fill-rule="nonzero" transform="translate(63)"/></g></svg>