<svg viewBox="0 0 645.18 187.87" xmlns="http://www.w3.org/2000/svg"><g fill="#fff"><path d="m4.78 0h14.22l18.3 84.1 18.42-84.1h14.08l1.92 103.68h-11.65l-1.15-75.26-17.54 75.26h-8.19l-17.41-75.26-1.15 75.26h-11.77z"/><path d="m92.14 102.27a16.61 16.61 0 0 1 -5.31-6.4 18.87 18.87 0 0 1 -1.92-8.32q0-8.7 3.71-14.14a27.05 27.05 0 0 1 9.38-8.58 160.39 160.39 0 0 1 16.06-7.36v-5.25q0-7.3-1.47-10.3t-6-3q-7.81 0-7.81 10.5v3.71l-13.57-.51.13-2.69q.64-11.14 6.21-16.19t15.94-5.06q10.62 0 15.42 5.82t4.8 17.6v33.79a133.1 133.1 0 0 0 1.28 17.79h-12.47q-1.41-7.3-1.79-10.88a18.7 18.7 0 0 1 -5.31 8.45 13.76 13.76 0 0 1 -9.66 3.46 12.76 12.76 0 0 1 -7.62-2.44zm18.24-11.46a16.55 16.55 0 0 0 3.71-4v-21q-5.63 3.33-8.45 5.18a17.74 17.74 0 0 0 -4.93 5 12.86 12.86 0 0 0 -2.11 7.36q0 4.61 1.66 7.1a5.48 5.48 0 0 0 4.86 2.5 8.2 8.2 0 0 0 5.26-2.13z"/><path d="m141.35 29.7h13.65v10.5q3.84-6.27 7.87-8.83a15.63 15.63 0 0 1 8.51-2.56 17.84 17.84 0 0 1 2.18.13v15.06a21.66 21.66 0 0 0 -7.55-1.54 11.2 11.2 0 0 0 -6 1.6 16.34 16.34 0 0 0 -5.01 5.6v54h-13.7z"/><path d="m188.46 101.18a17.6 17.6 0 0 1 -6.46-9.85 62.38 62.38 0 0 1 -1.73-16.06v-17a64.4 64.4 0 0 1 1.73-16.41 17 17 0 0 1 6.46-9.79q4.73-3.39 13.44-3.39 7.93 0 12.35 2.56a13.54 13.54 0 0 1 6.14 7.62 41.39 41.39 0 0 1 1.73 13.14v4.35h-12.42v-4.51q0-7.3-1.6-10.18t-6.1-2.88q-3.46 0-5.12 1.54a8.81 8.81 0 0 0 -2.3 5 59.59 59.59 0 0 0 -.58 10.1v23.3a47.26 47.26 0 0 0 .77 9.79 8 8 0 0 0 2.5 4.74 7.88 7.88 0 0 0 4.93 1.34q4.73 0 6.14-3.14t1.41-9.66v-6h12.42v5.11q0 12-4.42 17.92t-15.85 5.88q-8.71 0-13.44-3.52z"/><path d="m237.8 97.73q-4.93-7-4.93-20.29v-21.5q0-13.31 4.93-20.29t16.7-7q11.65 0 16.58 7t4.92 20.29v21.5q0 13.31-4.93 20.29t-16.58 7q-11.76-.03-16.69-7zm22.08-5.31a10.78 10.78 0 0 0 2-5.38 77 77 0 0 0 .38-8.7v-23.17a78.79 78.79 0 0 0 -.38-8.77 10.87 10.87 0 0 0 -2-5.44q-1.67-2.17-5.38-2.18t-5.44 2.22a10.53 10.53 0 0 0 -2.06 5.4 78.79 78.79 0 0 0 -.38 8.77v23.17a77 77 0 0 0 .38 8.66 10.44 10.44 0 0 0 2.11 5.38q1.73 2.18 5.44 2.18t5.33-2.14z"/><path d="m319 0h25.73q13.44 0 19.52 7.3t6.08 21.38q0 12.67-6.53 19.71t-18.94 7h-11.38v48.26h-14.48zm21.12 45.06a27.61 27.61 0 0 0 9.92-1.41 9 9 0 0 0 5.06-4.86q1.54-3.46 1.54-10 0-7.94-1.15-11.65a8.12 8.12 0 0 0 -4.54-5.25q-3.39-1.54-10.69-1.54h-6.78v34.71z"/><path d="m382.18 97.73q-4.93-7-4.93-20.29v-21.5q0-13.31 4.93-20.29t16.7-7q11.65 0 16.58 7t4.93 20.29v21.5q0 13.31-4.93 20.29t-16.58 7q-11.77-.03-16.7-7zm22.08-5.31a10.78 10.78 0 0 0 2-5.38 76.69 76.69 0 0 0 .38-8.7v-23.17a78.51 78.51 0 0 0 -.38-8.77 10.87 10.87 0 0 0 -2-5.44q-1.66-2.17-5.38-2.18t-5.43 2.22a10.53 10.53 0 0 0 -2.11 5.44 78.79 78.79 0 0 0 -.38 8.77v23.13a77 77 0 0 0 .38 8.7 10.44 10.44 0 0 0 2.11 5.38q1.73 2.18 5.44 2.18t5.37-2.18z"/><path d="m434.21 0h13.7v103.68h-13.7z"/><path d="m469.41 101.44a17.28 17.28 0 0 1 -6.66-9.66q-1.92-6.4-1.92-16.64v-16.9q0-15.36 4.8-22.46t17.09-7.1q9 0 13.5 3.71a17.92 17.92 0 0 1 6 10.43 88.44 88.44 0 0 1 1.47 18.11v6h-29.16v9.87q0 6.66.32 10a10.55 10.55 0 0 0 2 5.57q1.73 2.24 5.7 2.24 4.48 0 6.08-3t1.6-9.15v-4.46h13.31v2.82q0 11.65-5 17.79t-15.87 6.14q-8.52-.05-13.26-3.31zm20.86-41.92v-6.66q0-7.55-1.47-10.82t-6.21-3.26a7.39 7.39 0 0 0 -5.06 1.54 8.64 8.64 0 0 0 -2.37 5.06 60.81 60.81 0 0 0 -.64 10.18v4z"/><path d="m523.68 100.29q-3.68-4.42-3.84-13.29v-48.22h-7.84v-9.08h7.81v-21.64h13.7v21.64h11.9v9.09h-11.9v47.35q0 4.48 1.41 6.27t5.38 1.79a32 32 0 0 0 5-.38v10.11a64.14 64.14 0 0 1 -9.47.77q-8.44 0-12.15-4.41z"/><path d="m563.11 100.29q-3.71-4.42-3.84-13.25v-48.26h-7.81v-9.08h7.81v-21.64h13.73v21.64h11.9v9.09h-11.9v47.35q0 4.48 1.41 6.27t5.38 1.79a32 32 0 0 0 5-.38v10.11a64.14 64.14 0 0 1 -9.47.77q-8.5 0-12.21-4.41z"/><path d="m598.5 97.73q-4.93-7-4.93-20.29v-21.5q0-13.31 4.93-20.29t16.7-7q11.65 0 16.58 7t4.93 20.29v21.5q0 13.31-4.93 20.29t-16.58 7q-11.78-.03-16.7-7zm22.08-5.31a10.78 10.78 0 0 0 2-5.38 76.69 76.69 0 0 0 .38-8.7v-23.17a78.51 78.51 0 0 0 -.38-8.77 10.87 10.87 0 0 0 -2-5.44q-1.66-2.17-5.38-2.18t-5.44 2.22a10.53 10.53 0 0 0 -2.11 5.44 78.79 78.79 0 0 0 -.38 8.77v23.13a77 77 0 0 0 .38 8.7 10.44 10.44 0 0 0 2.11 5.38q1.73 2.18 5.44 2.18t5.38-2.18z"/><path d="m23.53 156.84h-17.9v18.84h-5.63v-42.68h26.43v4.6h-20.8v14.62h17.9z"/><path d="m46.88 148.84a16.25 16.25 0 0 0 -2.67-.21q-5.33 0-7.24 4.54v22.5h-5.42v-31.67h5.27l.09 3.66a8.44 8.44 0 0 1 7.56-4.25 5.54 5.54 0 0 1 2.4.41z"/><path d="m49.83 159.54a18.72 18.72 0 0 1 1.83-8.38 13.65 13.65 0 0 1 5.1-5.74 13.88 13.88 0 0 1 7.46-2 13.37 13.37 0 0 1 10.47 4.48q4 4.48 4 11.92v.38a18.88 18.88 0 0 1 -1.77 8.31 13.46 13.46 0 0 1 -5.07 5.73 14 14 0 0 1 -7.57 2.05 13.33 13.33 0 0 1 -10.44-4.48q-4-4.48-4-11.87zm5.45.64a13.56 13.56 0 0 0 2.45 8.47 8.29 8.29 0 0 0 13.11 0q2.43-3.24 2.43-9.07a13.54 13.54 0 0 0 -2.48-8.45 7.87 7.87 0 0 0 -6.58-3.24 7.78 7.78 0 0 0 -6.47 3.11q-2.46 3.23-2.46 9.18z"/><path d="m90.62 144 .18 4a11.55 11.55 0 0 1 9.49-4.57q10 0 10.14 11.34v20.95h-5.43v-21a7.3 7.3 0 0 0 -1.57-5.07 6.28 6.28 0 0 0 -4.79-1.65 7.82 7.82 0 0 0 -4.64 1.4 9.55 9.55 0 0 0 -3.11 3.69v22.59h-5.4v-31.68z"/><path d="m125.95 136.31v7.69h5.92v4.19h-5.92v19.68a4.4 4.4 0 0 0 .79 2.86 3.33 3.33 0 0 0 2.7 1 13.13 13.13 0 0 0 2.58-.35v4.37a15.82 15.82 0 0 1 -4.16.58 6.75 6.75 0 0 1 -5.48-2.2 9.44 9.44 0 0 1 -1.85-6.24v-19.72h-5.77v-4.17h5.77v-7.68z"/><path d="m151.35 176.27a13.85 13.85 0 0 1 -10.49-4.27q-4-4.23-4-11.32v-1a19 19 0 0 1 1.8-8.42 14.06 14.06 0 0 1 5-5.8 12.68 12.68 0 0 1 7-2.09q6.18 0 9.61 4.07t3.43 11.66v2.26h-21.46a11.26 11.26 0 0 0 2.76 7.64 8.61 8.61 0 0 0 6.67 2.89 9.44 9.44 0 0 0 4.86-1.17 12.22 12.22 0 0 0 3.49-3.11l3.31 2.58q-4.01 6.08-11.98 6.08zm-.67-28.42a7.23 7.23 0 0 0 -5.51 2.39 11.61 11.61 0 0 0 -2.75 6.69h15.88v-.41a10.33 10.33 0 0 0 -2.23-6.4 6.81 6.81 0 0 0 -5.4-2.27z"/><path d="m175.11 144 .18 4a11.55 11.55 0 0 1 9.49-4.57q10 0 10.14 11.34v20.95h-5.42v-21a7.3 7.3 0 0 0 -1.57-5.07 6.28 6.28 0 0 0 -4.79-1.64 7.82 7.82 0 0 0 -4.63 1.41 9.55 9.55 0 0 0 -3.11 3.69v22.59h-5.4v-31.7z"/><path d="m201.77 159.57q0-7.29 3.46-11.73a11.76 11.76 0 0 1 17.87-.63v-16.53h5.42v45h-5l-.26-3.4a11 11 0 0 1 -9.05 4 10.83 10.83 0 0 1 -9-4.51q-3.47-4.51-3.47-11.78zm5.42.62q0 5.39 2.23 8.44a7.2 7.2 0 0 0 6.15 3 7.91 7.91 0 0 0 7.53-4.63v-14.52a8 8 0 0 0 -7.47-4.48 7.23 7.23 0 0 0 -6.21 3.08q-2.23 3.07-2.23 9.1z"/><path d="m261.83 162.23.82 5.63 1.2-5.07 8.43-29.79h4.72l8.23 29.77 1.17 5.16.91-5.74 6.69-29.19h5.65l-10.34 42.66h-5.13l-8.79-31.08-.67-3.25-.72 3.27-9.11 31.08h-5.13l-10.3-42.68h5.63z"/><path d="m317.26 176.27a13.85 13.85 0 0 1 -10.49-4.27q-4-4.23-4-11.32v-1a19 19 0 0 1 1.8-8.42 14.06 14.06 0 0 1 5-5.8 12.68 12.68 0 0 1 7-2.09q6.18 0 9.61 4.07t3.43 11.66v2.26h-21.47a11.27 11.27 0 0 0 2.74 7.57 8.61 8.61 0 0 0 6.67 2.89 9.44 9.44 0 0 0 4.86-1.17 12.22 12.22 0 0 0 3.49-3.11l3.31 2.58q-3.99 6.15-11.95 6.15zm-.67-28.42a7.23 7.23 0 0 0 -5.51 2.39 11.61 11.61 0 0 0 -2.75 6.69h15.87v-.41a10.32 10.32 0 0 0 -2.23-6.4 6.81 6.81 0 0 0 -5.39-2.27z"/><path d="m362.72 160.18q0 7.27-3.34 11.67a10.67 10.67 0 0 1 -9 4.41 11.05 11.05 0 0 1 -9.29-4.25l-.26 3.66h-5v-45h5.42v16.79a11 11 0 0 1 9.05-4.07 10.74 10.74 0 0 1 9.07 4.37q3.3 4.37 3.3 12zm-5.42-.62q0-5.54-2.14-8.55a7.08 7.08 0 0 0 -6.15-3 8 8 0 0 0 -7.71 5v13.71a8.18 8.18 0 0 0 7.76 5 7 7 0 0 0 6.06-3q2.18-3.09 2.18-9.15z"/><path d="m385.25 175.68v-42.68h12a19.38 19.38 0 0 1 9.84 2.46 16.64 16.64 0 0 1 6.61 7 22.79 22.79 0 0 1 2.36 10.43v2.72a22.87 22.87 0 0 1 -2.33 10.58 16.38 16.38 0 0 1 -6.65 7 20.62 20.62 0 0 1 -10.06 2.49zm5.63-38.06v33.46h5.92q6.5 0 10.12-4t3.62-11.52v-2.56q0-7.27-3.41-11.3t-9.68-4.09z"/><path d="m436.9 176.27a13.85 13.85 0 0 1 -10.48-4.27q-4-4.23-4-11.32v-1a19 19 0 0 1 1.8-8.42 14.06 14.06 0 0 1 5-5.8 12.68 12.68 0 0 1 7-2.09q6.18 0 9.61 4.07t3.43 11.66v2.26h-21.47a11.27 11.27 0 0 0 2.74 7.57 8.61 8.61 0 0 0 6.67 2.89 9.44 9.44 0 0 0 4.86-1.17 12.22 12.22 0 0 0 3.49-3.11l3.31 2.58q-3.99 6.15-11.96 6.15zm-.67-28.42a7.23 7.23 0 0 0 -5.51 2.39 11.61 11.61 0 0 0 -2.75 6.69h15.88v-.41a10.32 10.32 0 0 0 -2.23-6.4 6.81 6.81 0 0 0 -5.39-2.27z"/><path d="m465.61 168.33 7.86-24.33h5.53l-11.37 31.7h-4.13l-11.5-31.7h5.54z"/><path d="m497 176.27a13.85 13.85 0 0 1 -10.5-4.27q-4-4.23-4-11.32v-1a19 19 0 0 1 1.8-8.42 14.06 14.06 0 0 1 5-5.8 12.68 12.68 0 0 1 7-2.09q6.18 0 9.61 4.07t3.43 11.66v2.26h-21.46a11.27 11.27 0 0 0 2.74 7.57 8.61 8.61 0 0 0 6.67 2.89 9.44 9.44 0 0 0 4.86-1.17 12.22 12.22 0 0 0 3.49-3.11l3.31 2.58q-3.95 6.15-11.95 6.15zm-.67-28.42a7.23 7.23 0 0 0 -5.51 2.39 11.61 11.61 0 0 0 -2.75 6.69h15.88v-.41a10.32 10.32 0 0 0 -2.23-6.4 6.81 6.81 0 0 0 -5.4-2.27z"/><path d="m521.51 175.68h-5.42v-45h5.42z"/><path d="m528.75 159.54a18.72 18.72 0 0 1 1.83-8.38 13.66 13.66 0 0 1 5.1-5.74 13.88 13.88 0 0 1 7.46-2 13.37 13.37 0 0 1 10.47 4.48q4 4.48 4 11.92v.38a18.88 18.88 0 0 1 -1.77 8.31 13.46 13.46 0 0 1 -5.07 5.73 14 14 0 0 1 -7.57 2.05 13.33 13.33 0 0 1 -10.44-4.48q-4-4.48-4-11.87zm5.45.64a13.56 13.56 0 0 0 2.45 8.47 8.29 8.29 0 0 0 13.11 0q2.43-3.24 2.43-9.07a13.54 13.54 0 0 0 -2.48-8.45 7.87 7.87 0 0 0 -6.58-3.24 7.78 7.78 0 0 0 -6.47 3.19q-2.46 3.15-2.46 9.1z"/><path d="m591.18 160.18q0 7.24-3.31 11.66a10.61 10.61 0 0 1 -9 4.42 11.63 11.63 0 0 1 -9.08-3.66v15.26h-5.39v-43.86h5l.26 3.52a11.17 11.17 0 0 1 9.2-4.1 10.81 10.81 0 0 1 9 4.31q3.33 4.31 3.33 12zm-5.42-.62q0-5.36-2.29-8.47a7.36 7.36 0 0 0 -6.27-3.11 8 8 0 0 0 -7.38 4.37v15.15a8 8 0 0 0 7.44 4.34 7.32 7.32 0 0 0 6.2-3.09q2.3-3.09 2.3-9.18z"/><path d="m611.22 176.27a13.85 13.85 0 0 1 -10.49-4.27q-4-4.23-4-11.32v-1a19 19 0 0 1 1.8-8.42 14.06 14.06 0 0 1 5-5.8 12.68 12.68 0 0 1 7-2.09q6.18 0 9.61 4.07t3.43 11.66v2.26h-21.46a11.27 11.27 0 0 0 2.74 7.57 8.61 8.61 0 0 0 6.67 2.89 9.44 9.44 0 0 0 4.86-1.17 12.22 12.22 0 0 0 3.49-3.11l3.31 2.58q-3.99 6.15-11.96 6.15zm-.67-28.42a7.23 7.23 0 0 0 -5.51 2.39 11.61 11.61 0 0 0 -2.75 6.69h15.88v-.41a10.32 10.32 0 0 0 -2.23-6.4 6.81 6.81 0 0 0 -5.39-2.27z"/><path d="m645.18 148.84a16.24 16.24 0 0 0 -2.67-.21q-5.33 0-7.24 4.54v22.5h-5.42v-31.67h5.27l.09 3.66a8.44 8.44 0 0 1 7.56-4.25 5.54 5.54 0 0 1 2.4.41z"/></g></svg>