<svg enable-background="new 0 0 511.883 511.883" viewBox="0 0 511.883 511.883" xmlns="http://www.w3.org/2000/svg"><path d="m341.251 479.885h-170.633l21.276-106.569 128.048-.031z" fill="#ccd1d9"/><path d="m511.883 383.909c0 5.905-4.781 10.653-10.67 10.653h-490.559c-5.874-.001-10.654-4.748-10.654-10.654v-341.257c0-5.889 4.78-10.653 10.654-10.653h490.559c5.889 0 10.67 4.764 10.67 10.653z" fill="#e6e9ed"/><path d="m341.251 479.885h-170.633c-5.874 0-10.654-4.779-10.654-10.653 0-5.905 4.78-10.686 10.654-10.686h170.633c5.889 0 10.669 4.78 10.669 10.686 0 5.875-4.781 10.653-10.669 10.653z" fill="#e6e9ed"/><path d="m501.213 31.998h-490.559c-5.874 0-10.654 4.764-10.654 10.653v287.926h511.883v-287.926c0-5.889-4.781-10.653-10.67-10.653z" fill="#656d78"/><path d="m266.595 362.569c0 5.905-4.765 10.685-10.654 10.685s-10.669-4.779-10.669-10.685c0-5.874 4.78-10.653 10.669-10.653s10.654 4.779 10.654 10.653z" fill="#434a54"/><path d="m373.243 74.644h-319.926c-5.89 0-10.669 4.78-10.669 10.669 0 5.89 4.78 10.67 10.669 10.67h319.926c5.889 0 10.67-4.78 10.67-10.67 0-5.889-4.782-10.669-10.67-10.669z" fill="#fc6e51"/><path d="m53.317 138.63h170.632c5.89 0 10.654-4.765 10.654-10.654 0-5.905-4.764-10.669-10.654-10.669h-170.632c-5.89 0-10.669 4.764-10.669 10.669-.001 5.889 4.779 10.654 10.669 10.654z" fill="#ac92eb"/><path d="m53.317 181.29h234.618c5.89 0 10.654-4.78 10.654-10.669s-4.765-10.653-10.654-10.653h-234.618c-5.89 0-10.669 4.764-10.669 10.653-.001 5.889 4.779 10.669 10.669 10.669z" fill="#48cfad"/><path d="m53.317 223.938 149.293.016c5.905 0 10.669-4.78 10.669-10.669s-4.764-10.669-10.669-10.669h-149.293c-5.89 0-10.669 4.78-10.669 10.669-.001 5.888 4.779 10.653 10.669 10.653z" fill="#5d9cec"/><path d="m330.581 245.275h-277.264c-5.89 0-10.669 4.78-10.669 10.654 0 5.905 4.78 10.67 10.669 10.67h277.264c5.905 0 10.67-4.765 10.67-10.654 0-5.888-4.765-10.67-10.67-10.67z" fill="#ffce54"/><path d="m138.625 287.93h-85.308c-5.89 0-10.669 4.781-10.669 10.654 0 5.905 4.78 10.686 10.669 10.686h85.309c5.905 0 10.669-4.78 10.669-10.686 0-5.873-4.765-10.654-10.67-10.654z" fill="#ed5564"/></svg>